<svg xmlns="http://www.w3.org/2000/svg" width="805" height="600"><rect width="805" height="600" x="0" y="0" fill="#FFFFFF" id="background"/><g transform="translate(50,100)" id="viz"><g fill="none" font-size="10" font-family="sans-serif" text-anchor="middle"><path class="domain" stroke="currentColor" d="M0,0H705"/><g class="tick" opacity="1" transform="translate(30.32119326500737,0)"><line stroke="currentColor" y2="-6"/><text fill="currentColor" y="-9" dy="3.4641016151377544" dx="3.4641016151377544" text-anchor="start" transform="rotate(-45)">0:54:13</text></g><g class="tick" opacity="1" transform="translate(88.89915812591512,0)"><line stroke="currentColor" y2="-6"/><text fill="currentColor" y="-9" dy="3.4641016151377544" dx="3.4641016151377544" text-anchor="start" transform="rotate(-45)">0:48:21</text></g><g class="tick" opacity="1" transform="translate(147.47712298682288,0)"><line stroke="currentColor" y2="-6"/><text fill="currentColor" y="-9" dy="3.4641016151377544" dx="3.4641016151377544" text-anchor="start" transform="rotate(-45)">0:43:04</text></g><g class="tick" opacity="1" transform="translate(206.05508784773065,0)"><line stroke="currentColor" y2="-6"/><text fill="currentColor" y="-9" dy="3.4641016151377544" dx="3.4641016151377544" text-anchor="start" transform="rotate(-45)">0:46:29</text></g><g class="tick" opacity="1" transform="translate(264.6330527086384,0)"><line stroke="currentColor" y2="-6"/><text fill="currentColor" y="-9" dy="3.4641016151377544" dx="3.4641016151377544" text-anchor="start" transform="rotate(-45)">0:53:00</text></g><g class="tick" opacity="1" transform="translate(323.21101756954613,0)"><line stroke="currentColor" y2="-6"/><text fill="currentColor" y="-9" dy="3.4641016151377544" dx="3.4641016151377544" text-anchor="start" transform="rotate(-45)">0:25:48</text></g><g class="tick" opacity="1" transform="translate(381.7889824304539,0)"><line stroke="currentColor" y2="-6"/><text fill="currentColor" y="-9" dy="3.4641016151377544" dx="3.4641016151377544" text-anchor="start" transform="rotate(-45)">0:20:46</text></g><g class="tick" opacity="1" transform="translate(440.36694729136167,0)"><line stroke="currentColor" y2="-6"/><text fill="currentColor" y="-9" dy="3.4641016151377544" dx="3.4641016151377544" text-anchor="start" transform="rotate(-45)">0:51:32</text></g><g class="tick" opacity="1" transform="translate(498.9449121522694,0)"><line stroke="currentColor" y2="-6"/><text fill="currentColor" y="-9" dy="3.4641016151377544" dx="3.4641016151377544" text-anchor="start" transform="rotate(-45)">0:52:04</text></g><g class="tick" opacity="1" transform="translate(557.5228770131772,0)"><line stroke="currentColor" y2="-6"/><text fill="currentColor" y="-9" dy="3.4641016151377544" dx="3.4641016151377544" text-anchor="start" transform="rotate(-45)">0:22:44</text></g><g class="tick" opacity="1" transform="translate(616.100841874085,0)"><line stroke="currentColor" y2="-6"/><text fill="currentColor" y="-9" dy="3.4641016151377544" dx="3.4641016151377544" text-anchor="start" transform="rotate(-45)">0:15:01</text></g><g class="tick" opacity="1" transform="translate(674.6788067349927,0)"><line stroke="currentColor" y2="-6"/><text fill="currentColor" y="-9" dy="3.4641016151377544" dx="3.4641016151377544" text-anchor="start" transform="rotate(-45)"/></g></g><g fill="none" font-size="10" font-family="sans-serif" text-anchor="end"><path class="domain" stroke="currentColor" d="M0,0V587.5"/><g class="tick" opacity="1" transform="translate(0,30.30344600526778)"><line stroke="currentColor" x2="-6"/><text fill="currentColor" x="-9" dy="0.32em">10.01</text></g><g class="tick" opacity="1" transform="translate(0,88.84712467076383)"><line stroke="currentColor" x2="-6"/><text fill="currentColor" x="-9" dy="0.32em">9.21</text></g><g class="tick" opacity="1" transform="translate(0,147.39080333625986)"><line stroke="currentColor" x2="-6"/><text fill="currentColor" x="-9" dy="0.32em">5.96</text></g><g class="tick" opacity="1" transform="translate(0,205.93448200175592)"><line stroke="currentColor" x2="-6"/><text fill="currentColor" x="-9" dy="0.32em">9.26</text></g><g class="tick" opacity="1" transform="translate(0,264.478160667252)"><line stroke="currentColor" x2="-6"/><text fill="currentColor" x="-9" dy="0.32em">10</text></g><g class="tick" opacity="1" transform="translate(0,323.021839332748)"><line stroke="currentColor" x2="-6"/><text fill="currentColor" x="-9" dy="0.32em">5.02</text></g><g class="tick" opacity="1" transform="translate(0,381.5655179982441)"><line stroke="currentColor" x2="-6"/><text fill="currentColor" x="-9" dy="0.32em">4.38</text></g><g class="tick" opacity="1" transform="translate(0,440.10919666374014)"><line stroke="currentColor" x2="-6"/><text fill="currentColor" x="-9" dy="0.32em">5.03</text></g><g class="tick" opacity="1" transform="translate(0,498.65287532923617)"><line stroke="currentColor" x2="-6"/><text fill="currentColor" x="-9" dy="0.32em">2.48</text></g><g class="tick" opacity="1" transform="translate(0,557.1965539947321)"><line stroke="currentColor" x2="-6"/><text fill="currentColor" x="-9" dy="0.32em"/></g></g><text dx="-9" dy="-9" style="text-anchor: end; font-family: Arial, sans-serif; font-size: 12px; fill: rgb(123, 123, 123); font-weight: bold;">km</text><text x="504.8742417671949" y="504.8742417671949" dx="3.4641016151377544" dy="-3.4641016151377544" transform="rotate(-45)" style="text-anchor: start; font-family: Arial, sans-serif; font-size: 12px; fill: rgb(123, 123, 123); font-weight: bold;">tiempo</text><rect x="25.17031644833309" y="25.16910812426567" rx="0" ry="0" width="10.538210441547694" height="10.538210441547694" style="fill: rgb(44, 160, 44);"/><rect x="83.74828130924084" y="83.71278678976171" rx="0" ry="0" width="10.538210441547694" height="10.538210441547694" style="fill: rgb(255, 127, 14);"/><rect x="142.3262461701486" y="142.25646545525777" rx="0" ry="0" width="10.538210441547694" height="10.538210441547694" style="fill: rgb(214, 39, 40);"/><rect x="200.90421103105638" y="200.80014412075383" rx="0" ry="0" width="10.538210441547694" height="10.538210441547694" style="fill: rgb(44, 160, 44);"/><rect x="259.4821758919641" y="259.34382278624986" rx="0" ry="0" width="10.538210441547694" height="10.538210441547694" style="fill: rgb(44, 160, 44);"/><rect x="318.06014075287186" y="317.8875014517459" rx="0" ry="0" width="10.538210441547694" height="10.538210441547694" style="fill: rgb(255, 127, 14);"/><rect x="376.63810561377966" y="376.431180117242" rx="0" ry="0" width="10.538210441547694" height="10.538210441547694" style="fill: rgb(255, 127, 14);"/><rect x="435.2160704746874" y="25.16910812426567" rx="0" ry="0" width="10.538210441547694" height="10.538210441547694" style="fill: rgb(255, 127, 14);"/><rect x="493.79403533559514" y="259.34382278624986" rx="0" ry="0" width="10.538210441547694" height="10.538210441547694" style="fill: rgb(44, 160, 44);"/><rect x="552.3720001965029" y="434.974858782738" rx="0" ry="0" width="10.538210441547694" height="10.538210441547694" style="fill: rgb(214, 39, 40);"/><rect x="610.9499650574106" y="493.51853744823404" rx="0" ry="0" width="10.538210441547694" height="10.538210441547694" style="fill: rgb(214, 39, 40);"/><rect x="646.4220351390923" y="528.9563213345039" rx="0" ry="0" width="56.75" height="56.75" style="fill: rgb(31, 119, 180);"/><g id="labels"><g transform="translate(30.439421669106935,30.438213345039514)"><text x="0" y="0" text-anchor="middle" dominant-baseline="text-before-edge" transform="translate(0,-5.6666669845581055)"><tspan x="0" y="0" dy="0" style="font-family: Arial, sans-serif; font-size: 10px; fill: black; font-weight: bold;">SANTIAGO HERNANDEZ</tspan></text></g><g transform="translate(89.01738653001469,88.98189201053556)"><text x="0" y="0" text-anchor="middle" dominant-baseline="text-before-edge" transform="translate(0,-5.6666669845581055)"><tspan x="0" y="0" dy="0" style="font-family: Arial, sans-serif; font-size: 10px; fill: black; font-weight: bold;">SANTIAGO HERNANDEZ</tspan></text></g><g transform="translate(147.59535139092245,147.5255706760316)"><text x="0" y="0" text-anchor="middle" dominant-baseline="text-before-edge" transform="translate(0,-5.6666669845581055)"><tspan x="0" y="0" dy="0" style="font-family: Arial, sans-serif; font-size: 10px; fill: black; font-weight: bold;">NACHO SCARANO</tspan></text></g><g transform="translate(206.17331625183022,206.06924934152767)"><text x="0" y="0" text-anchor="middle" dominant-baseline="text-before-edge" transform="translate(0,-5.6666669845581055)"><tspan x="0" y="0" dy="0" style="font-family: Arial, sans-serif; font-size: 10px; fill: black; font-weight: bold;">SANTIAGO HERNANDEZ</tspan></text></g><g transform="translate(264.75128111273796,264.6129280070237)"><text x="0" y="0" text-anchor="middle" dominant-baseline="text-before-edge" transform="translate(0,-5.6666669845581055)"><tspan x="0" y="0" dy="0" style="font-family: Arial, sans-serif; font-size: 10px; fill: black; font-weight: bold;">MATEO LOPARDO</tspan></text></g><g transform="translate(323.3292459736457,323.15660667251973)"><text x="0" y="0" text-anchor="middle" dominant-baseline="text-before-edge" transform="translate(0,-5.6666669845581055)"><tspan x="0" y="0" dy="0" style="font-family: Arial, sans-serif; font-size: 10px; fill: black; font-weight: bold;">MATEO LOPARDO</tspan></text></g><g transform="translate(381.9072108345535,381.7002853380158)"><text x="0" y="0" text-anchor="middle" dominant-baseline="text-before-edge" transform="translate(0,-5.6666669845581055)"><tspan x="0" y="0" dy="0" style="font-family: Arial, sans-serif; font-size: 10px; fill: black; font-weight: bold;">SANTIAGO HERNANDEZ</tspan></text></g><g transform="translate(440.48517569546124,30.438213345039514)"><text x="0" y="0" text-anchor="middle" dominant-baseline="text-before-edge" transform="translate(0,-5.6666669845581055)"><tspan x="0" y="0" dy="0" style="font-family: Arial, sans-serif; font-size: 10px; fill: black; font-weight: bold;">SANTIAGO HERNANDEZ</tspan></text></g><g transform="translate(499.063140556369,264.6129280070237)"><text x="0" y="0" text-anchor="middle" dominant-baseline="text-before-edge" transform="translate(0,-5.6666669845581055)"><tspan x="0" y="0" dy="0" style="font-family: Arial, sans-serif; font-size: 10px; fill: black; font-weight: bold;">MATEO LOPARDO</tspan></text></g><g transform="translate(557.6411054172768,440.24396400351185)"><text x="0" y="0" text-anchor="middle" dominant-baseline="text-before-edge" transform="translate(0,-5.6666669845581055)"><tspan x="0" y="0" dy="0" style="font-family: Arial, sans-serif; font-size: 10px; fill: black; font-weight: bold;">SANTIAGO HERNANDEZ</tspan></text></g><g transform="translate(616.2190702781845,498.7876426690079)"><text x="0" y="0" text-anchor="middle" dominant-baseline="text-before-edge" transform="translate(0,-5.6666669845581055)"><tspan x="0" y="0" dy="0" style="font-family: Arial, sans-serif; font-size: 10px; fill: black; font-weight: bold;">NACHO SCARANO</tspan></text></g><g transform="translate(674.7970351390923,557.3313213345039)"><text x="0" y="0" text-anchor="middle" dominant-baseline="text-before-edge" transform="translate(0,-5.6666669845581055)"><tspan x="0" y="0" dy="0" style="font-family: Arial, sans-serif; font-size: 10px; fill: black; font-weight: bold;">0:00:00,#¡DIV/0!</tspan></text></g></g></g></svg>